<?xml version="1.0" encoding="UTF-8" standalone="no"?>
<!DOCTYPE svg PUBLIC "-//W3C//DTD SVG 1.1//EN" "http://www.w3.org/Graphics/SVG/1.1/DTD/svg11.dtd">
<svg width="100%" height="100%" viewBox="0 0 709 709" version="1.1" xmlns="http://www.w3.org/2000/svg" xmlns:xlink="http://www.w3.org/1999/xlink" xml:space="preserve" xmlns:serif="http://www.serif.com/" style="fill-rule:evenodd;clip-rule:evenodd;stroke-linejoin:round;stroke-miterlimit:2;">
    <g transform="matrix(1,0,0,1,-107.755,-15)">
        <path d="M446.13,15C414.8,16.77 388,21.31 360.65,29.58C284.52,52.58 219.48,99.06 173.65,163.2C149.926,196.515 132.093,233.654 120.93,273C113.93,298 110.21,319.77 108.1,348.33C107.64,354.52 107.64,384.33 108.1,390.85C109.344,410.061 112.085,429.146 116.3,447.93C131.182,513.16 164.175,572.885 211.47,620.21C233.803,642.622 259.085,661.886 286.62,677.47C330.603,702.462 379.408,717.803 429.78,722.47C439.73,723.4 443.44,723.55 458.26,723.68C473.85,723.81 480.32,723.68 490.26,722.86C530.357,719.65 569.618,709.644 606.36,693.27C612.18,690.69 626.31,683.71 632.26,680.46C653.304,668.993 673.14,655.438 691.47,640C706.357,627.241 720.241,613.357 733,598.47C770.376,554.102 796.363,501.275 808.7,444.59C814.89,415.98 817.28,389.93 816.59,359.24C815.53,314.01 805.69,270.24 786.88,226.83C772.547,194.307 753.465,164.091 730.26,137.17C718.286,123.439 705.321,110.605 691.47,98.77C635.734,51.688 566.855,22.851 494.2,16.18C483.79,15.18 480.88,15.1 464.43,15.02C455.23,15 447,15 446.13,15ZM485.56,60.31C527.36,63.6 565,73.9 601.4,92.1C682.161,132.426 741.238,206.291 762.83,293.94C767.91,314.38 770.72,334.74 771.77,358.94C772.34,372.03 771.31,391.18 769.14,407.67C761.571,465.303 737.839,519.633 700.7,564.35C689.281,577.987 676.755,590.656 663.25,602.23C617.72,640.873 561.936,665.48 502.7,673.05C489.804,674.776 476.801,675.585 463.79,675.47C454.324,675.58 444.86,675.166 435.44,674.23C387.533,669.778 341.327,654.174 300.53,628.67C280.691,616.305 262.357,601.673 245.9,585.07C188.278,527.364 155.879,449.066 155.879,367.517C155.879,230.77 246.98,109.643 378.36,71.71C400.997,65.214 424.294,61.286 447.81,60C454.2,59.65 479.56,59.88 485.56,60.35L485.56,60.31Z" style="fill:white;fill-rule:nonzero;"/>
    </g>
    <g transform="matrix(1,0,0,1,-107.755,-15)">
        <path d="M419.2,154.8C418.355,155.104 417.494,155.361 416.62,155.57C413.24,156.47 407.24,158.28 401.54,160.16C376.411,168.374 352.555,180.068 330.67,194.9C300.9,214.9 271.27,241.9 238.05,279.17C215.423,304.583 198.973,330.51 188.7,356.95C179.29,381.15 175.07,406.15 176.97,426.33C177.12,427.88 177.33,429.58 177.43,430.07L177.64,430.97L177.92,430.27C178.92,427.74 184.05,417.93 187.33,412.15C201.955,386.595 219.54,362.851 239.72,341.41C255,325 267.18,315.09 279,309.32C286.45,305.71 293.3,304.11 298.66,304.76C303.71,305.38 306.83,306.85 310.02,310.07C312.185,312.167 313.758,314.8 314.58,317.7L315.17,319.63L315.25,404.29C315.3,459.57 315.25,489.85 315.07,491.52C314.908,494.209 314.208,496.838 313.01,499.25C309.84,505.92 302.39,509.09 292.01,508.19C288.038,507.773 284.112,506.996 280.28,505.87C279.28,505.56 278.73,505.48 278.84,505.66C278.95,505.84 279.59,506.74 280.28,507.75C287.5,517.8 298.91,529.17 310.72,537.95C341.95,561.3 388.72,578.54 438.72,585.19L444.9,586L446.32,584.48C447.09,583.66 450.73,579.79 454.41,575.9C464.87,564.82 466.65,562.9 481.83,546.8C489.69,538.45 496.26,531.6 496.39,531.6C496.52,531.6 499.61,534.07 503.22,537.14L529.89,559.66L544.45,572C544.79,572.26 545.51,571.9 548.45,570.09C562.908,561.164 576.535,550.96 589.17,539.6C594.4,534.96 609.17,520.17 614.06,514.6C628.313,498.651 641.208,481.538 652.61,463.44C659.61,452.44 667.66,437.98 671.37,429.94L672.56,427.36L665.4,434.47C651.79,447.92 641.77,456.38 630.64,463.62C612.16,475.73 596.78,479.62 585.15,475.14C582.535,474.114 580.154,472.569 578.15,470.6L577,469.33L576.82,466.39C576.3,457.58 575.82,438.45 575.2,403.64C574.66,372.56 574.58,296.97 575.07,284.06C575.48,272.88 575.84,266.87 576.28,263.65C576.64,261.05 576.69,260.94 578.81,257.34C584.38,247.86 591.36,237.65 601.9,223.66C611.31,211.11 626.69,191.83 636.82,179.82C637.95,178.48 639.06,177.14 639.27,176.88C639.66,176.42 639.63,176.39 638.52,176.57C632.88,177.42 618.34,181.23 608.75,184.38C570.17,196.98 532.44,220.15 506.41,247.16L502.54,251.16L501.3,250.28C493.9,245.02 479.16,241.72 464.16,241.96L459.26,242.04L460.96,243.1C466.24,246.48 471.86,252.3 476.32,259.1C480.73,265.726 483.876,273.11 485.6,280.88L486.32,284.05L486.37,374.89L486.45,465.73L483.15,468.33C468.2,480.21 453.33,488.2 441.48,490.75C430.63,493.07 420.48,490.65 412.36,483.75C408.773,480.522 405.81,476.661 403.62,472.36L402.69,470.53L402.69,361.61C402.69,301.72 402.61,252.75 402.51,252.81C397.23,255.49 395.29,256.11 391.84,256.11C388.208,256.242 384.703,254.736 382.3,252.01C379.36,249.01 377.61,245.57 376.11,239.64C374.95,235.13 374.56,231.64 374.41,224.41C374.26,216.81 374.56,213.66 375.98,208.12C378.034,200.33 381.472,192.973 386.13,186.4C393.42,175.76 404.69,164.88 416.72,156.89C418.29,155.89 419.66,154.89 419.81,154.78C420.16,154.49 419.72,154.51 419.2,154.8Z" style="fill:white;fill-rule:nonzero;"/>
    </g>
    <g transform="matrix(1,0,0,1,-107.755,-15)">
        <path d="M694.69,198.71C692.657,200.977 690.205,202.831 687.47,204.17C682.16,206.85 676.83,207.75 665.69,207.88C661.69,207.93 661,207.98 660.61,208.37C660.38,208.6 650.17,223.14 637.93,240.66L615.64,272.51L614.45,281.76C613.78,286.84 613.24,291.09 613.24,291.19C613.24,291.29 624.14,291.4 637.46,291.4L661.71,291.4L661.56,292.22C661.35,293.51 658.34,317.73 658.34,318.27C658.34,318.81 659.11,318.71 672.05,318.66L685.79,318.58L686.07,316.39C686.25,315.18 686.41,313.81 686.41,313.39L686.41,312.57L684,312.57C682.22,312.57 681.55,312.49 681.55,312.23C681.55,311.97 681.96,308.85 682.45,305.09C682.94,301.33 683.53,296.71 683.79,294.83L684.2,291.43L697.45,291.43L697.89,287.62C699.23,276.23 699.62,273.24 699.72,272.93C699.82,272.62 698.41,272.62 693.28,272.62C691.061,272.691 688.84,272.621 686.63,272.41C686.55,272.31 687.07,268.05 687.76,262.95C688.45,257.85 689.44,250.71 689.92,247.1C690.4,243.49 692.14,230.74 693.79,218.75C695.44,206.76 696.73,196.92 696.7,196.82C695.955,197.365 695.28,198 694.69,198.71ZM667.63,240.38C666.91,246.38 665.98,254.3 665.57,257.9C665.16,261.5 664.57,266.28 664.33,268.47L663.89,272.47L651.57,272.55C641.18,272.6 639.25,272.55 639.33,272.24C639.41,271.93 668.73,229.24 668.84,229.38C668.95,229.52 668.33,234.38 667.63,240.38Z" style="fill:white;fill-rule:nonzero;"/>
    </g>
</svg>
