<svg viewBox="0 0 709 709" xmlns="http://www.w3.org/2000/svg" fill-rule="evenodd" clip-rule="evenodd" stroke-linejoin="round" stroke-miterlimit="2"><path d="M338.375 0c-31.33 1.77-58.13 6.31-85.48 14.58-76.13 23-141.17 69.48-187 133.62A357.515 357.515 0 0013.175 258c-7 25-10.72 46.77-12.83 75.33-.46 6.19-.46 36 0 42.52a369.86 369.86 0 008.2 57.08 355.653 355.653 0 0095.17 172.28 348.239 348.239 0 0075.15 57.26 356.326 356.326 0 00143.16 45c9.95.93 13.66 1.08 28.48 1.21 15.59.13 22.06 0 32-.82a354.773 354.773 0 00116.1-29.59c5.82-2.58 19.95-9.56 25.9-12.81a357.312 357.312 0 0059.21-40.46 382.637 382.637 0 0041.53-41.53 356.544 356.544 0 0075.7-153.88c6.19-28.61 8.58-54.66 7.89-85.35-1.06-45.23-10.9-89-29.71-132.41a359.195 359.195 0 00-56.62-89.66 372.724 372.724 0 00-38.79-38.4 356.207 356.207 0 00-197.27-82.59c-10.41-1-13.32-1.08-29.77-1.16-9.2-.02-17.43-.02-18.3-.02zm39.43 45.31c41.8 3.29 79.44 13.59 115.84 31.79 80.761 40.326 139.838 114.191 161.43 201.84 5.08 20.44 7.89 40.8 8.94 65 .57 13.09-.46 32.24-2.63 48.73a308.03 308.03 0 01-68.44 156.68 322.927 322.927 0 01-37.45 37.88 308.59 308.59 0 01-160.55 70.82 274.995 274.995 0 01-38.91 2.42c-9.466.11-18.93-.304-28.35-1.24a308.34 308.34 0 01-134.91-45.56 301.358 301.358 0 01-54.63-43.6c-57.622-57.706-90.021-136.004-90.021-217.553 0-136.747 91.101-257.874 222.481-295.807A313.934 313.934 0 01340.055 45c6.39-.35 31.75-.12 37.75.35v-.04z" fill="#fff" fill-rule="nonzero"/><path d="M311.445 139.8c-.845.304-1.706.561-2.58.77-3.38.9-9.38 2.71-15.08 4.59a283.117 283.117 0 00-70.87 34.74c-29.77 20-59.4 47-92.62 84.27-22.627 25.413-39.077 51.34-49.35 77.78-9.41 24.2-13.63 49.2-11.73 69.38.15 1.55.36 3.25.46 3.74l.21.9.28-.7c1-2.53 6.13-12.34 9.41-18.12a374.959 374.959 0 0152.39-70.74c15.28-16.41 27.46-26.32 39.28-32.09 7.45-3.61 14.3-5.21 19.66-4.56 5.05.62 8.17 2.09 11.36 5.31a17.125 17.125 0 014.56 7.63l.59 1.93.08 84.66c.05 55.28 0 85.56-.18 87.23a20.093 20.093 0 01-2.06 7.73c-3.17 6.67-10.62 9.84-21 8.94a66.081 66.081 0 01-11.73-2.32c-1-.31-1.55-.39-1.44-.21.11.18.75 1.08 1.44 2.09 7.22 10.05 18.63 21.42 30.44 30.2 31.23 23.35 78 40.59 128 47.24l6.18.81 1.42-1.52c.77-.82 4.41-4.69 8.09-8.58 10.46-11.08 12.24-13 27.42-29.1 7.86-8.35 14.43-15.2 14.56-15.2.13 0 3.22 2.47 6.83 5.54l26.67 22.52 14.56 12.34c.34.26 1.06-.1 4-1.91a284.222 284.222 0 0040.72-30.49c5.23-4.64 20-19.43 24.89-25a383.789 383.789 0 0038.55-51.16c7-11 15.05-25.46 18.76-33.5l1.19-2.58-7.16 7.11c-13.61 13.45-23.63 21.91-34.76 29.15-18.48 12.11-33.86 16-45.49 11.52a20.861 20.861 0 01-7-4.54l-1.15-1.27-.18-2.94c-.52-8.81-1-27.94-1.62-62.75-.54-31.08-.62-106.67-.13-119.58.41-11.18.77-17.19 1.21-20.41.36-2.6.41-2.71 2.53-6.31 5.57-9.48 12.55-19.69 23.09-33.68 9.41-12.55 24.79-31.83 34.92-43.84 1.13-1.34 2.24-2.68 2.45-2.94.39-.46.36-.49-.75-.31-5.64.85-20.18 4.66-29.77 7.81-38.58 12.6-76.31 35.77-102.34 62.78l-3.87 4-1.24-.88c-7.4-5.26-22.14-8.56-37.14-8.32l-4.9.08 1.7 1.06c5.28 3.38 10.9 9.2 15.36 16a64.541 64.541 0 019.28 21.78l.72 3.17.05 90.84.08 90.84-3.3 2.6c-14.95 11.88-29.82 19.87-41.67 22.42-10.85 2.32-21-.1-29.12-7a39.335 39.335 0 01-8.74-11.39l-.93-1.83V346.61c0-59.89-.08-108.86-.18-108.8-5.28 2.68-7.22 3.3-10.67 3.3a12.136 12.136 0 01-9.54-4.1c-2.94-3-4.69-6.44-6.19-12.37-1.16-4.51-1.55-8-1.7-15.23-.15-7.6.15-10.75 1.57-16.29a67.195 67.195 0 0110.15-21.72c7.29-10.64 18.56-21.52 30.59-29.51 1.57-1 2.94-2 3.09-2.11.35-.29-.09-.27-.61.02z" fill="#fff" fill-rule="nonzero"/><path d="M586.935 183.71a23.691 23.691 0 01-7.22 5.46c-5.31 2.68-10.64 3.58-21.78 3.71-4 .05-4.69.1-5.08.49-.23.23-10.44 14.77-22.68 32.29l-22.29 31.85-1.19 9.25c-.67 5.08-1.21 9.33-1.21 9.43 0 .1 10.9.21 24.22.21h24.25l-.15.82c-.21 1.29-3.22 25.51-3.22 26.05 0 .54.77.44 13.71.39l13.74-.08.28-2.19c.18-1.21.34-2.58.34-3v-.82h-2.41c-1.78 0-2.45-.08-2.45-.34s.41-3.38.9-7.14c.49-3.76 1.08-8.38 1.34-10.26l.41-3.4h13.25l.44-3.81c1.34-11.39 1.73-14.38 1.83-14.69.1-.31-1.31-.31-6.44-.31a52.35 52.35 0 01-6.65-.21c-.08-.1.44-4.36 1.13-9.46.69-5.1 1.68-12.24 2.16-15.85.48-3.61 2.22-16.36 3.87-28.35 1.65-11.99 2.94-21.83 2.91-21.93a11.25 11.25 0 00-2.01 1.89zm-27.06 41.67c-.72 6-1.65 13.92-2.06 17.52-.41 3.6-1 8.38-1.24 10.57l-.44 4-12.32.08c-10.39.05-12.32 0-12.24-.31.08-.31 29.4-43 29.51-42.86.11.14-.51 5-1.21 11z" fill="#fff" fill-rule="nonzero"/></svg>